<?xml version="1.0" encoding="UTF-8"?>
<svg version="1.1" viewBox="0 0 247 64" xmlns="http://www.w3.org/2000/svg" xmlns:xlink="http://www.w3.org/1999/xlink">
<title>Rollins College</title>
<desc>Logo for Rollins College Est. 1885</desc>
<defs>
<polygon id="b" points="0.7895 0.041 21.256 0.041 21.256 60.836 0.7895 60.836"/>
<polygon id="a" points="0.2954 0.041 20.761 0.041 20.761 60.836 0.2954 60.836"/>
</defs>
<g fill="none" fill-rule="evenodd">
<path d="m17.543 54.918c0 3.353 1.289 4.642 9.115 4.901v1.978h-26.658v-1.978c7.481-0.259 9.373-1.719 9.373-4.901v-44.546c0-3.182-1.892-4.73-9.373-4.987v-1.892h24.596c17.37 0 23.388 6.449 23.388 14.189 0 7.137-4.47 12.641-16.252 14.704v0.259c11.523 0.86 13.588 5.675 14.791 13.415l0.861 5.848c1.117 6.533 2.837 7.739 9.631 7.911v1.892c-1.634 0.43-4.042 0.687-5.762 0.687-10.062 0-11.953-2.923-12.728-10.75l-0.686-7.395c-0.861-8.512-3.784-10.404-13.329-10.404h-6.967v21.069zm7.396-23.477c11.522 0 14.016-5.247 14.016-13.502 0-7.738-3.696-12.038-14.963-12.038h-6.449v25.54h7.396z" fill="#FEFEFE" fill-rule="nonzero"/>
<path d="m55.289 42.189c0-11.952 8.515-20.552 19.437-20.552 11.263 0 19.261 8.255 19.261 20.208 0 12.04-8.427 20.639-19.261 20.639-11.438 0-19.437-8.255-19.437-20.295m30.614-0.171c0-13.158-4.729-18.318-11.608-18.318-6.795 0-10.836 5.16-10.836 18.318 0 13.07 4.729 18.316 11.61 18.316 6.707 0 10.834-5.246 10.834-18.316" fill="#FEFEFE" fill-rule="nonzero"/>
<g transform="translate(95 .9595)">
<mask id="d" fill="white">
<use xlink:href="#b"/>
</mask>
<path d="m1.4775 58.944c4.986-0.086 6.278-0.688 6.278-3.182v-49.274c0-2.837-1.292-4.128-6.966-4.299v-1.807l14.188-0.342v55.722c0 2.494 1.204 3.096 6.278 3.182v1.892h-19.778v-1.892z" fill="#FEFEFE" fill-rule="nonzero" mask="url(#d)"/>
</g>
<g transform="translate(120 .9595)">
<mask id="c" fill="white">
<use xlink:href="#a"/>
</mask>
<path d="m0.9834 58.944c4.986-0.086 6.278-0.688 6.278-3.182v-49.274c0-2.837-1.292-4.128-6.966-4.299v-1.807l14.188-0.342v55.722c0 2.494 1.204 3.096 6.278 3.182v1.892h-19.778v-1.892z" fill="#FEFEFE" fill-rule="nonzero" mask="url(#c)"/>
</g>
<path d="m144.03 59.904c4.987-0.086 6.277-0.688 6.277-3.182v-28.119c0-2.58-1.204-4.214-6.19-4.299v-1.807l13.415-0.344v34.569c0 2.494 1.204 3.096 6.449 3.182v1.892h-19.951v-1.892zm4.729-51.681c0-2.925 1.978-5.16 4.818-5.16 2.923 0 4.814 2.064 4.814 4.987 0 3.01-1.891 5.073-4.814 5.073-2.84 0-4.818-1.892-4.818-4.9z" fill="#FEFEFE" fill-rule="nonzero"/>
<path d="m168.36 59.904c4.985-0.086 6.276-0.688 6.276-3.182v-28.119c0-2.58-1.291-4.214-6.276-4.299v-1.807l13.328-0.344v7.825c4.213-4.9 9.459-8.082 15.221-8.082 6.105 0 10.061 4.041 10.061 11.779v23.047c0 2.494 1.204 3.096 6.278 3.182v1.892h-19.004v-1.892c4.386-0.086 5.504-0.688 5.504-3.182v-20.38c0-7.223-2.495-9.975-7.911-9.975-4.043 0-7.57 2.579-9.977 6.019v24.336c0 2.494 1.117 3.096 5.418 3.182v1.892h-18.918v-1.892z" fill="#FEFEFE" fill-rule="nonzero"/>
<path d="m218.32 48.897h1.807c4.642 8.17 7.911 11.437 13.501 11.437 4.987 0 7.48-3.438 7.48-6.708 0-4.126-2.493-6.104-10.491-8.426-8.6-2.495-12.038-5.332-12.038-11.18 0-7.224 5.33-12.382 13.845-12.382 3.01 0 6.536 1.117 8.513 2.322l1.719-2.322h1.463v12.038h-1.807c-3.87-6.793-6.536-9.975-11.178-9.975-4.128 0-7.137 2.752-7.137 6.622 0 3.611 3.094 5.589 10.06 7.567 8.341 2.321 11.954 5.332 11.954 11.524 0 7.049-4.386 13.071-13.329 13.071-3.181 0-7.655-1.291-10.148-2.838l-2.752 2.838h-1.462v-13.588z" fill="#FEFEFE" fill-rule="nonzero"/>
</g>
</svg>
